<svg xmlns="http://www.w3.org/2000/svg" fill="none" viewBox="0 0 220 72">
  <path fill="#E8E8E8" d="m12.627 26.452-.153 3.22 2.913.153c-1.763 17.021-3.067 25.532-4.217 28.599l-1.686.077c-.154-4.14-.92-11.118-.384-18.862 1.15-16.637 5.904-30.132 7.744-33.045h2.224L16.69 18.478l2.07.307c.92-2.377 2.837-8.434 3.757-14.261-3.374-1.304-6.44-1.534-9.508-1.227C7.798 8.817 1.51 21.852.13 41.557c-.69 9.736 1.533 17.71 2.913 21.467l10.734.46c2.07-5.597 3.374-11.807 5.444-33.735 1.457-.077 2.913-.154 4.447-.384l.23-2.913h-11.27Z"/>
  <path fill="#E8E8E8" d="M22.46 56.967h10.35l3.757-23.001h-1.84L31.43 48.533h-1.38c1.074-14.72 4.6-35.039 7.514-48.533l-10.81.23c-1.917 15.948-4.14 28.445-6.441 41.403h1.84c2.224-11.654 4.294-22.005 7.36-32.97h1.227c-2.99 18.019-7.053 40.33-8.28 48.304Z"/>
  <path fill="#E8E8E8" d="m43.078 18.018-6.057.153c-1.073 5.137-1.763 10.428-2.3 15.795-.306 7.053.23 12.88 2.147 19.704h4.754c.92-2.223 4.293-14.72 5.443-22.388H48.6c-1.61 15.795-3.757 28.982-9.277 35.96l-2.377-.078c-.46-1.84.69-6.977 1.303-9.967l-1.763-.46c-1.84 4.447-2.99 7.667-3.604 12.344 2.53 1.304 6.287 1.38 8.127.614 3.297-1.38 6.977-5.52 10.121-12.651 3.45-7.667 4.6-12.114 6.364-23.078h-1.84c-1.687 8.127-3.22 13.57-5.597 19.858h-1.304c1.917-9.124 4.064-23.769 4.984-35.193h-7.59c-1.304 14.951-2.76 20.472-4.218 25.685h-1.686c-.23-10.964.613-18.861 2.837-26.298Z"/>
  <path fill="#E8E8E8" d="M66.65 58.117c4.6-1.533 8.127-4.83 9.2-16.484.154-10.504-1.456-19.705-2.3-23.769h-4.216c-.844 2.3-3.834 12.345-5.597 20.549l-1.534-.154 3.68-20.778-7.513 1.15-4.064 23.002h1.84L58.6 28.982h.69c.23 11.73-1.074 28.139-2.607 39.87H63.2l-.383-16.179h.92c.69 2.224 2.146 5.138 2.913 5.444Zm-2.837-10.734c.537-3.987 3.144-14.414 4.37-17.634h.767c.92 5.673 1.227 16.79.537 22.158l-1.38.843c-1.533-.92-3.757-3.45-4.294-5.367Z"/>
  <path fill="#E8E8E8" d="M76.528 56.967H85.5c1.227-8.28 4.524-27.295 5.98-31.972l2.147.537-3.757 33.735h9.508l4.37-25.301h-1.84l-4.294 18.707H96.31c1.456-13.647 3.373-22.234 5.137-32.585-1.61-1.917-5.214-3.297-8.894-2.914-2.454 1.687-3.68 4.217-4.524 8.051l-4.293 20.241h-1.15c2.223-15.257 5.29-31.358 8.203-45.16l-10.044.23-1.303 10.658c-.92 7.437-3.757 19.705-5.444 30.439h1.84l4.907-25.609 1.457.307c-1.15 12.268-4.83 35.653-5.674 40.636Zm69.336 7.207h7.667c.537-14.26 3.144-37.799 5.367-51.6l-5.52 3.22c-1.303 8.434-4.293 27.372-7.514 48.38Zm-.996-51.37c7.667-.997 14.797-2.453 24.841-4.293l.537-5.214c-12.498 1.533-17.558 2.07-24.612 2.453l-.766 7.054Zm26.895 5.827c-2.224-1.533-5.751-1.84-8.818-1.15-1.226 1.227-2.913 8.357-3.833 16.485 0 3.833.843 18.554 4.753 23.461 2.684.844 5.061 1.15 8.204.46 1.227-1.61 2.837-8.51 3.757-16.254.307-6.517-.767-19.398-4.063-23.002Zm-6.594 1.534h1.457c2.146 3.297 5.443 30.668 3.296 35.115h-1.303c-2.377-3.757-5.29-31.052-3.45-35.115Zm24.788-1.534c-2.223-1.533-5.75-1.84-8.817-1.15-1.227 1.227-2.914 8.357-3.834 16.485 0 3.833.844 18.554 4.754 23.461 2.683.844 5.06 1.15 8.204.46 1.227-1.61 2.837-8.51 3.757-16.254.306-6.517-.767-19.398-4.064-23.002Zm-6.594 1.534h1.457c2.147 3.297 5.444 30.668 3.297 35.115h-1.303c-2.377-3.757-5.291-31.052-3.451-35.115Z"/>
  <path fill="#E8E8E8" d="M194.321 56.967h10.351l3.757-23.001h-1.841l-3.297 14.567h-1.38c1.074-14.72 4.601-35.039 7.514-48.533l-10.81.23c-1.917 15.948-4.141 28.445-6.441 41.403h1.84c2.224-11.654 4.294-22.005 7.361-32.97h1.226c-2.99 18.019-7.053 40.33-8.28 48.304Z"/>
  <path fill="#E8E8E8" d="M211.029 71.228c2.531-1.303 5.367-5.29 5.751-11.884.076-1.38.076-3.22.076-5.214L220 33.966h-1.84l-2.224 10.657-.69-.077c-1.226-16.944-.076-22.005 2.147-30.285l-7.284-.613c-1.84 6.287-2.607 15.487-4.907 27.985h1.84l3.067-16.791h.69c-.383 15.717 1.074 36.649-1.226 43.243h-2.071l1.074-9.278-1.227-.153c-.843 2.837-2.07 7.13-3.067 12.114 2.224 1.227 4.984 1.38 6.747.46Z"/>
  <path fill="#9D9D9D" d="M110.181 49.88c0-1.414.129-2.793.388-4.138.275-1.345.698-2.63 1.267-3.854a15.433 15.433 0 0 1 2.147-3.389h2.147a18.174 18.174 0 0 0-2.018 3.466 20.064 20.064 0 0 0-1.216 3.854 19.772 19.772 0 0 0-.413 4.035 19.15 19.15 0 0 0 1.629 7.734 18.22 18.22 0 0 0 1.992 3.466h-2.121a15.102 15.102 0 0 1-2.147-3.337 16.453 16.453 0 0 1-1.267-3.776 21.16 21.16 0 0 1-.388-4.06Zm7.495 7.087h1.682c.284-.828 1.293-4.63 1.784-7.475h.388l-1.008 7.475h2.586l1.267-7.76h-.62l-1.112 4.915h-.285c.155-5.561 1.086-14.614 1.267-16.476l-2.509.052c.207 2.56.156 4.992.13 7.526h-.259c-.233-.853-.724-1.707-.983-1.836-1.552.517-2.767 2.25-3.104 5.82-.051 3.285.492 6.388.776 7.76Zm1.371-11.484.466-.284c.517.31 1.267 1.163 1.448 1.81-.181 1.345-1.06 4.863-1.474 5.95h-.259c-.31-1.915-.414-5.665-.181-7.476Z"/>
  <path fill="#9D9D9D" d="M128.013 44.035c-.75-.518-1.94-.621-2.974-.388-.414.413-.983 2.819-1.293 5.56 0 1.294.284 6.26 1.603 7.915.906.285 1.707.388 2.768.156.414-.544.957-2.871 1.267-5.484.104-2.198-.258-6.544-1.371-7.76Zm-2.224.517h.491c.725 1.112 1.837 10.346 1.113 11.846h-.44c-.802-1.267-1.785-10.475-1.164-11.846Z"/>
  <path fill="#9D9D9D" d="M129.589 56.967h3.104l1.241-7.76h-.62l-1.087 4.915h-.491c.051-3.725.491-8.406.957-12.415h1.603l.156-1.164h-1.63l.259-1.966-2.069.155-.104 1.81c-.543-.025-1.138-.025-1.785-.077v1.242h1.604c-.207 1.655-1.474 6.57-1.966 10.087h.621l1.164-5.949.336.078c-.595 4.707-.983 8.95-1.293 11.044Z"/>
  <path fill="#9D9D9D" d="M140.044 49.88a19.9 19.9 0 0 1-.414 4.06 15.667 15.667 0 0 1-1.242 3.777 13.934 13.934 0 0 1-2.146 3.337h-2.121a18.215 18.215 0 0 0 1.991-3.466c.535-1.207.94-2.466 1.216-3.776.276-1.31.414-2.63.414-3.958a19.994 19.994 0 0 0-1.63-7.889 16.539 16.539 0 0 0-2.017-3.466h2.147a14.234 14.234 0 0 1 2.146 3.389 16.52 16.52 0 0 1 1.242 3.854 20.53 20.53 0 0 1 .414 4.138Z"/>
</svg>
