<svg xmlns="http://www.w3.org/2000/svg" fill="none" viewBox="0 0 348 114">
  <path fill="#E8E8E8" d="m19.974 41.842-.243 5.094 4.609.242c-2.79 26.925-4.851 40.387-6.67 45.238l-2.67.121c-.242-6.549-1.455-17.585-.606-29.835 1.82-26.318 9.339-47.663 12.25-52.272h3.517l-3.76 18.799 3.274.485c1.456-3.76 4.488-13.341 5.943-22.558-5.336-2.062-10.188-2.426-15.039-1.94C12.333 13.946 2.388 34.565.205 65.733-.886 81.137 2.631 93.75 4.814 99.693l16.98.728c3.274-8.854 5.335-18.678 8.61-53.364 2.304-.121 4.609-.243 7.034-.606l.364-4.61H19.974Z"/>
  <path fill="#E8E8E8" d="M35.527 90.112H51.9l5.943-36.385h-2.91l-5.216 23.044h-2.183C49.232 53.485 54.811 21.345 59.42 0L42.319.364c-3.032 25.226-6.55 44.995-10.188 65.492h2.911c3.517-18.435 6.792-34.808 11.643-52.151h1.94c-4.73 28.5-11.157 63.794-13.098 76.407Z"/>
  <path fill="#E8E8E8" d="m68.142 28.501-9.58.243c-1.699 8.125-2.79 16.494-3.64 24.983-.484 11.158.364 20.376 3.397 31.17h7.519c1.455-3.518 6.792-23.286 8.61-35.414h2.427c-2.547 24.983-5.943 45.844-14.675 56.88l-3.76-.121c-.728-2.911 1.091-11.037 2.062-15.766l-2.79-.728c-2.91 7.034-4.73 12.128-5.7 19.526 4.002 2.062 9.945 2.183 12.856.97 5.215-2.183 11.036-8.732 16.009-20.011 5.458-12.128 7.277-19.162 10.066-36.506h-2.91c-2.669 12.856-5.094 21.467-8.854 31.412h-2.062C80.15 70.707 83.545 47.542 85 29.471H72.994c-2.062 23.65-4.367 32.382-6.67 40.63h-2.67c-.363-17.344.971-29.836 4.488-41.6Z"/>
  <path fill="#E8E8E8" d="M105.429 91.93c7.276-2.425 12.855-7.64 14.553-26.075.243-16.615-2.304-31.169-3.638-37.597h-6.671c-1.334 3.639-6.064 19.527-8.853 32.504l-2.426-.243 5.822-32.867-11.886 1.82-6.428 36.384h2.911l3.881-20.012h1.092c.364 18.556-1.698 44.51-4.124 63.066h10.309l-.606-25.59h1.455c1.091 3.517 3.396 8.126 4.609 8.61Zm-4.488-16.978c.849-6.307 4.973-22.801 6.913-27.895h1.213c1.455 8.975 1.941 26.56.849 35.05l-2.183 1.334c-2.426-1.455-5.943-5.457-6.792-8.49Z"/>
  <path fill="#E8E8E8" d="M121.054 90.112h14.19c1.94-13.099 7.155-43.176 9.46-50.574l3.396.849-5.943 53.363h15.039l6.913-40.023h-2.911l-6.792 29.593h-2.062c2.305-21.588 5.337-35.171 8.126-51.544-2.547-3.032-8.247-5.215-14.068-4.61-3.881 2.67-5.822 6.671-7.156 12.735l-6.792 32.019h-1.819c3.517-24.135 8.369-49.604 12.977-71.435L127.724.85l-2.061 16.858c-1.456 11.764-5.943 31.17-8.611 48.149h2.91l7.762-40.508 2.305.485c-1.819 19.405-7.641 56.395-8.975 64.279Zm109.677 11.4h12.128c.849-22.558 4.972-59.791 8.49-81.622l-8.733 5.094c-2.061 13.34-6.791 43.297-11.885 76.528Zm-1.577-81.258c12.128-1.577 23.407-3.881 39.295-6.792l.849-8.247c-19.769 2.426-27.773 3.275-38.931 3.881l-1.213 11.158Zm42.543 9.217c-3.517-2.425-9.096-2.91-13.947-1.819-1.941 1.94-4.609 13.22-6.064 26.075 0 6.065 1.334 29.35 7.519 37.112 4.245 1.335 8.005 1.82 12.977.728 1.941-2.547 4.488-13.462 5.943-25.711.485-10.31-1.213-30.684-6.428-36.385Zm-10.43 2.426h2.304c3.396 5.215 8.611 48.512 5.216 55.547h-2.062c-3.76-5.943-8.369-49.12-5.458-55.547Zm39.211-2.426c-3.517-2.425-9.096-2.91-13.948-1.819-1.94 1.94-4.608 13.22-6.064 26.075 0 6.065 1.335 29.35 7.52 37.112 4.245 1.335 8.004 1.82 12.977.728 1.94-2.547 4.487-13.462 5.943-25.711.485-10.31-1.213-30.684-6.428-36.385Zm-10.43 2.426h2.304c3.396 5.215 8.611 48.512 5.215 55.547h-2.062c-3.759-5.943-8.368-49.12-5.457-55.547Z"/>
  <path fill="#E8E8E8" d="M307.38 90.112h16.373l5.943-36.385h-2.911l-5.215 23.044h-2.183c1.698-23.286 7.277-55.426 11.886-76.771l-17.101.364c-3.032 25.226-6.549 44.995-10.187 65.492h2.91c3.517-18.435 6.792-34.808 11.643-52.151h1.941c-4.73 28.5-11.158 63.794-13.099 76.407Z"/>
  <path fill="#E8E8E8" d="M333.81 112.67c4.002-2.062 8.49-8.368 9.096-18.799.121-2.183.121-5.093.121-8.247L348 53.727h-2.911l-3.517 16.858-1.091-.12c-1.941-26.804-.122-34.808 3.395-47.907l-11.521-.97c-2.911 9.945-4.124 24.499-7.762 44.268h2.911l4.851-26.561h1.091c-.606 24.863 1.698 57.972-1.94 68.402h-3.275l1.698-14.675-1.94-.242c-1.334 4.487-3.275 11.279-4.852 19.162 3.518 1.941 7.884 2.183 10.673.728Z"/>
  <path fill="#DFF314" d="m180.221 100.999 1.04-1.168c-2.331-2.754-4.286-7.552-4.286-15.105 0-11.724 4.328-22.74 9.28-26.703v-1.336c-5.66 4.173-11.403 16.231-11.403 28.749 0 7.594 2.289 12.35 5.369 15.563Zm5.202-10.473h2.705c.458-1.335 2.081-7.469 2.872-12.058h.624l-1.623 12.058h4.161l2.039-12.517h-.998l-1.79 7.927h-.458c.25-8.97 1.748-23.574 2.04-26.578l-4.037.083c.333 4.13.25 8.053.208 12.142h-.416c-.375-1.377-1.165-2.754-1.581-2.962-2.497.834-4.453 3.63-4.994 9.388-.083 5.299.791 10.306 1.248 12.517ZM187.629 72l.749-.459c.832.501 2.039 1.878 2.33 2.921-.291 2.17-1.706 7.844-2.372 9.597h-.416c-.499-3.088-.666-9.138-.291-12.059Z"/>
  <path fill="#DFF314" d="M202.054 69.664c-1.206-.835-3.121-1.002-4.785-.626-.666.667-1.582 4.548-2.081 8.97 0 2.087.458 10.098 2.58 12.769 1.457.459 2.747.625 4.453.25.666-.876 1.54-4.632 2.039-8.846.166-3.546-.416-10.556-2.206-12.517Zm-3.578.834h.79c1.165 1.794 2.955 16.69 1.79 19.11h-.708c-1.29-2.044-2.871-16.898-1.872-19.11Z"/>
  <path fill="#DFF314" d="M204.589 90.526h4.994l1.997-12.517h-.998l-1.748 7.927h-.791c.083-6.008.791-13.56 1.54-20.028h2.58l.25-1.877h-2.622l.416-3.171-3.329.25-.166 2.92c-.874-.04-1.831-.04-2.872-.124v2.003h2.58c-.333 2.67-2.372 10.598-3.162 16.272h.998l1.873-9.596.541.125c-.957 7.594-1.581 14.437-2.081 17.816Zm11.203-33.839-1.04 1.169c2.33 2.753 4.286 7.552 4.286 15.104 0 11.725-4.328 22.74-9.28 26.704v1.335c5.659-4.172 11.402-16.23 11.402-28.748 0-7.594-2.289-12.35-5.368-15.564Z"/>
</svg>
